<svg xmlns="http://www.w3.org/2000/svg" xmlns:xlink="http://www.w3.org/1999/xlink" version="1.1" x="0px" y="0px" viewBox="0 0 34 42.5" style="enable-background:new 0 0 34 34;" xml:space="preserve"><title>자산 308</title><g><g><path d="M23.4,16.3H12.5l4.7-4.7c0.3-0.3,0.3-0.8,0-1.1c-0.3-0.3-0.7-0.3-1,0l-6,6c-0.3,0.3-0.3,0.8,0,1.1l6,6    c0.3,0.3,0.8,0.3,1.1,0c0.3-0.3,0.3-0.7,0-1l-4.7-4.8h10.9c0.4,0,0.8-0.3,0.8-0.8C24.1,16.6,23.8,16.2,23.4,16.3L23.4,16.3z"/></g></g><text x="0" y="49" fill="#000000" font-size="5px" font-weight="bold" font-family="'Helvetica Neue', Helvetica, Arial-Unicode, Arial, Sans-serif">Created by purplestudio</text><text x="0" y="54" fill="#000000" font-size="5px" font-weight="bold" font-family="'Helvetica Neue', Helvetica, Arial-Unicode, Arial, Sans-serif">from the Noun Project</text></svg>